<?xml version="1.0" encoding="utf-8"?>
<!-- Generator: Adobe Illustrator 25.4.1, SVG Export Plug-In . SVG Version: 6.00 Build 0)  -->
<svg version="1.1" id="Layer_1" xmlns="http://www.w3.org/2000/svg" xmlns:xlink="http://www.w3.org/1999/xlink" x="0px" y="0px"
	 viewBox="0 0 360 360" style="enable-background:new 0 0 360 360;" xml:space="preserve">
<style type="text/css">
	.st0{fill:url(#SVGID_1_);}
	.st1{fill:#EC008C;}
</style>
<g>
	<linearGradient id="SVGID_1_" gradientUnits="userSpaceOnUse" x1="22.1191" y1="180.2788" x2="327.2812" y2="180.2788">
		<stop  offset="1.734970e-02" style="stop-color:#FDB515"/>
		<stop  offset="8.372665e-02" style="stop-color:#FBAF25"/>
		<stop  offset="0.2043" style="stop-color:#F9A044"/>
		<stop  offset="0.3653" style="stop-color:#F58864"/>
		<stop  offset="0.5609" style="stop-color:#F1627C"/>
		<stop  offset="0.7715" style="stop-color:#EC008C"/>
	</linearGradient>
	<path class="st0" d="M186.8,65.2H51.7l13.3,46h121.8c12.7,0,23,10.3,23,23v23h-115c-38.1,0-69,31-69,69c0,38.1,31,69,69,69h92
		c38.1,0,69-31,69-69v-46v-23v-23C255.8,96.2,224.9,65.2,186.8,65.2z M209.8,226.3c0,12.7-10.3,23-23,23h-92c-12.7,0-23-10.3-23-23
		c0-12.7,10.3-23,23-23h115V226.3z"/>
	<polygon class="st1" points="321.7,157.3 279.7,157.3 279.7,203.3 335,203.3 	"/>
</g>
</svg>
