<svg xmlns="http://www.w3.org/2000/svg" xmlns:xlink="http://www.w3.org/1999/xlink" viewBox="0 0 386.46 219.22"><defs><style>.cls-1{fill:url(#linear-gradient);}.cls-2{fill:url(#linear-gradient-2);}.cls-3{fill:#fff;}</style><linearGradient id="linear-gradient" x1="2.7" y1="85.95" x2="346.75" y2="85.95" gradientUnits="userSpaceOnUse"><stop offset="0.02" stop-color="#fab600"/><stop offset="0.11" stop-color="#f9aa08"/><stop offset="0.29" stop-color="#f58a1f"/><stop offset="0.52" stop-color="#ef5543"/><stop offset="0.79" stop-color="#e80e74"/><stop offset="0.85" stop-color="#e6007e"/></linearGradient><linearGradient id="linear-gradient-2" x1="0.45" y1="170.67" x2="386.46" y2="170.67" xlink:href="#linear-gradient"/></defs><g id="Layer_2" data-name="Layer 2"><g id="Layer_1-2" data-name="Layer 1"><path class="cls-1" d="M84.94,90.69V123H71.32V95.09c0-7.34-3.72-11.37-9.9-11.37-5.87,0-10.74,3.82-10.74,11.47V123H37V95.09c0-7.34-3.67-11.37-9.9-11.37-5.87,0-10.74,3.82-10.74,11.47V123H2.7V72.25H16v6c3.62-5.4,9.17-7.33,14.93-7.33,7.34,0,13.36,3.3,16.77,8.69,3.92-6.44,10.58-8.69,17.23-8.69C76.87,70.89,84.94,78.9,84.94,90.69ZM143.61,123H130.25V117.4c-3.3,4.09-8.22,6.92-15.19,6.92-14,0-24.57-11.47-24.57-26.72s10.58-26.71,24.57-26.71c7,0,11.84,2.83,15.19,7v-5.6h13.36ZM104.48,97.6c0,7.75,5.08,14,13.09,14,7.81,0,13.1-6,13.1-14s-5.29-14-13.1-14C109.56,83.62,104.48,89.85,104.48,97.6Zm59.91-7.28h4.82l14.3-18.07h16.77l-20,23.89L200.43,123H183.62L169,102.47h-4.61V123H150.72V47.58h13.67Zm84.13,7.23a38.61,38.61,0,0,1-.26,4.61h-36c1.47,7.33,6.6,10.53,13,10.53a20.52,20.52,0,0,0,12.83-4.87l8,8.8c-5.77,5.29-13.1,7.7-21.64,7.7-15.56,0-26.35-10.58-26.35-26.56s10.48-26.87,25.67-26.87C238.47,70.89,248.47,81.73,248.52,97.55Zm-36.19-4.71H234.8c-1.26-6.5-5.19-10.17-11.05-10.17C217.3,82.67,213.53,86.55,212.33,92.84Zm84.55-36.2a8.73,8.73,0,1,1-8.75-8.8A8.68,8.68,0,0,1,296.88,56.64ZM295,123H281.37V72.25H295ZM343,84.4H324.59V103c0,6.33,3.36,8.64,7.6,8.64,3.25,0,6.76-1.63,9.53-3.3l5,10.68a28.3,28.3,0,0,1-16.81,5.35c-12.58,0-19-7.13-19-20.27V84.4h-9.79V72.25h9.79V57.16h13.67V72.25H343Z"/><path class="cls-2" d="M53.57,197.27H40.21v-5.6c-3.3,4.08-8.22,6.91-15.19,6.91C11,198.58.45,187.11.45,171.87S11,145.15,25,145.15c7,0,11.84,2.83,15.19,7v-5.61H53.57Zm-39.13-25.4c0,7.75,5.08,14,13.1,14,7.8,0,13.09-6,13.09-14s-5.29-14-13.09-14C19.52,157.88,14.44,164.11,14.44,171.87ZM142.88,165v32.32H129.26V169.35c0-7.33-3.72-11.36-9.9-11.36-5.87,0-10.74,3.82-10.74,11.47v27.81H95V169.35C95,162,91.28,158,85.05,158c-5.87,0-10.74,3.82-10.74,11.47v27.81H60.64V146.51h13.3v6c3.61-5.4,9.17-7.34,14.93-7.34,7.33,0,13.36,3.3,16.76,8.7,3.93-6.45,10.58-8.7,17.24-8.7C134.81,145.15,142.88,153.17,142.88,165Zm58.62,32.32H188.14v-5.6c-3.3,4.08-8.23,6.91-15.19,6.91-14,0-24.57-11.47-24.57-26.71S159,145.15,173,145.15c7,0,11.84,2.83,15.19,7v-5.61H201.5Zm-39.13-25.4c0,7.75,5.08,14,13.09,14,7.81,0,13.1-6,13.1-14s-5.29-14-13.1-14C167.45,157.88,162.37,164.11,162.37,171.87Zm89.89-15.35-25,28.55h25.62v12.2H208.42v-9.84L234,158.67H209.31V146.51h42.95Zm23-25.61a8.73,8.73,0,1,1-8.75-8.8A8.58,8.58,0,0,1,275.26,130.91Zm-1.83,66.36H259.75V146.51h13.68Zm55-32.32v32.32H314.8V169.35c0-7.33-3.67-11.36-9.9-11.36-5.87,0-10.74,3.82-10.74,11.47v27.81H280.49V146.51h13.3v6c3.62-5.4,9.17-7.34,14.93-7.34C320.25,145.15,328.47,153.17,328.47,165Zm44.58-12.78v-5.66h13.41v46.57c0,16.29-10.63,26.14-27.39,26.14-8,0-16.5-2.09-22.21-6.13l4.87-11.15a30,30,0,0,0,16.76,5.18c8.49,0,14.46-4.71,14.46-13.46V190.1c-3.46,4.24-8.59,6.86-15.61,6.86C345,197,334,186.64,334,171.08s11-25.93,23.36-25.93C364.41,145.15,369.6,147.88,373.05,152.17Zm-25,18.91c0,7.34,5,13.31,12.79,13.31,7.59,0,12.72-5.76,12.72-13.31s-5.13-13.36-12.72-13.36C353,157.72,348,163.7,348,171.08Z"/><path class="cls-3" d="M35.11,0H5.66l2.9,10H35.11a5,5,0,0,1,5,5v5H15.05a15,15,0,0,0,0,30.1H35.11a15.07,15.07,0,0,0,15-15.05V15.05A15.07,15.07,0,0,0,35.11,0Zm5,35.12a5,5,0,0,1-5,5H15.05a5,5,0,1,1,0-10H40.13Z"/><polygon class="cls-3" points="64.51 20.07 55.37 20.07 55.37 30.1 67.42 30.1 64.51 20.07"/><path class="cls-3" d="M101.11,35.19H96.73V32.78a7.66,7.66,0,0,1-6.32,2.94c-5.62,0-10-4.43-10-10.58s4.43-10.57,10-10.57a7.67,7.67,0,0,1,6.32,3V15.1h4.38Zm-16.24-10c0,3.53,2.29,6.44,6.07,6.44,3.63,0,6.06-2.77,6.06-6.44s-2.43-6.44-6.06-6.44C87.16,18.7,84.87,21.62,84.87,25.14Z"/><path class="cls-3" d="M138.89,22.56V35.19h-4.41V24c0-3.38-1.74-5.26-4.68-5.26a5,5,0,0,0-5.2,5.3V35.19h-4.41V24c0-3.38-1.74-5.26-4.67-5.26a5,5,0,0,0-5.2,5.3V35.19h-4.41V15.1h4.36v2.45a7.14,7.14,0,0,1,6.17-3,7.9,7.9,0,0,1,6.94,3.59c1.74-2.88,4.85-3.59,7.34-3.59C135.51,14.57,138.89,17.86,138.89,22.56Z"/><path class="cls-3" d="M189,25.14a10.82,10.82,0,0,1-21.63,0,10.82,10.82,0,0,1,21.63,0Zm-17.12,0a6.31,6.31,0,1,0,12.61,0,6.31,6.31,0,1,0-12.61,0Z"/><path class="cls-3" d="M210.15,17.78l-2.81,3a6.73,6.73,0,0,0-4.82-2.08c-3.38,0-5.94,2.65-5.94,6.44s2.56,6.44,5.94,6.44a7.33,7.33,0,0,0,4.93-2.09l2.7,3a9.7,9.7,0,0,1-7.51,3.21c-6.39,0-10.57-4.56-10.57-10.58s4.18-10.57,10.57-10.57A9.6,9.6,0,0,1,210.15,17.78Z"/><path class="cls-3" d="M228.26,20.13a12.94,12.94,0,0,0-6.21-1.72c-2.4,0-3.8,1-3.8,2.39s1.47,1.81,3.31,2.08l2.08.31c4.39.63,7,2.5,7,5.94,0,3.86-3.36,6.56-9.15,6.56a14.7,14.7,0,0,1-8.62-2.58l2-3.29a10.12,10.12,0,0,0,6.63,2.06c3,0,4.57-.95,4.57-2.46,0-1.13-1.09-1.88-3.48-2.22l-2.09-.27c-4.45-.61-6.82-2.67-6.82-5.9,0-4,3.19-6.44,8.3-6.44a15.27,15.27,0,0,1,8.14,2.12Z"/><path class="cls-3" d="M159,17.52V10.13l4.38-1.55V35.19H159V32.78a7.64,7.64,0,0,1-6.32,2.94c-5.62,0-10-4.43-10-10.58s4.43-10.57,10-10.57A7.65,7.65,0,0,1,159,17.52Zm-11.86,7.62c0,3.53,2.29,6.44,6.07,6.44,3.63,0,6.06-2.77,6.06-6.44s-2.43-6.44-6.06-6.44C149.41,18.7,147.12,21.62,147.12,25.14Z"/></g></g></svg>