<svg version="1.1" id="Layer_1" xmlns="http://www.w3.org/2000/svg" xmlns:xlink="http://www.w3.org/1999/xlink" x="0px" y="0px"
	 viewBox="0 0 20 20" style="enable-background:new 0 0 20 20;" xml:space="preserve">
<style type="text/css">
	.help1{fill:#ffffff;}
</style>
<path class="help1" d="M10,2c-4.4,0-8,3.6-8,8c0,4.4,3.6,8,8,8c4.4,0,8-3.6,8-8C18,5.6,14.4,2,10,2z M0,10C0,4.5,4.5,0,10,0
	c5.5,0,10,4.5,10,10c0,5.5-4.5,10-10,10C4.5,20,0,15.5,0,10z"/>
<path class="help1" d="M10,12c-0.6,0-1-0.4-1-1v-1c0-0.6,0.4-1,1-1s1,0.4,1,1v1C11,11.6,10.6,12,10,12z"/>
<path class="help1" d="M8.5,14.5c0-0.8,0.7-1.5,1.5-1.5s1.5,0.7,1.5,1.5S10.8,16,10,16S8.5,15.3,8.5,14.5z"/>
<path class="help1" d="M10.4,5.8c-1,0-1.8,0.5-1.9,1.4C8.4,7.7,7.9,8.1,7.3,8C6.8,7.9,6.4,7.4,6.5,6.8c0.4-2.1,2.3-3.1,4-3
	c0.9,0,1.7,0.3,2.4,1C13.6,5.4,14,6.4,14,7.5c0,1.3-0.5,2.2-1.4,2.8C11.8,10.9,10.8,11,10,11c-0.6,0-1-0.4-1-1s0.4-1,1-1
	c0.7,0,1.2-0.1,1.5-0.3C11.8,8.5,12,8.2,12,7.5c0-0.6-0.2-1-0.5-1.2C11.3,6,10.8,5.8,10.4,5.8z"/>
</svg>
