<?xml version="1.0" encoding="utf-8"?>
<!-- Generator: Adobe Illustrator 26.0.1, SVG Export Plug-In . SVG Version: 6.00 Build 0)  -->
<svg version="1.1" id="Layer_1" xmlns="http://www.w3.org/2000/svg" xmlns:xlink="http://www.w3.org/1999/xlink" x="0px" y="0px"
	 viewBox="0 0 108.3 78.7" style="enable-background:new 0 0 108.3 78.7;" xml:space="preserve">
<g>
	<path style="fill:none;stroke:#FFFFFF;stroke-width:0.91;stroke-miterlimit:10;" d="M10.7,32.7c6.1-22.2,27.6-28.3,39.8-12.1
		c-2,2.2-3.8,3.8-5.8,6c4,2.4,9,4.7,13.3,6.8c1.5-6.1,3.5-12.5,2.8-20.5c-1.5,1.2-3.2,2.3-4.8,3.3 M56.1,15.9
		c-3.2-4.9-7.2-8.8-11.6-11.5C28.6-5.5,9,3.9,0.5,24.6c1.9,4.8,5.7,7.9,9.8,8"/>
	<path style="fill:#110C08;" d="M67.1,53.7c4.4,0,8-3.6,8-8s-3.6-8-8-8c-1,0-1.9,0.2-2.8,0.5c0.4-1,0.6-2.1,0.6-3.2
		c0-5.1-4.1-9.2-9.2-9.2c-4.6,0-8.4,3.3-9.1,7.7c-1-0.4-2-0.6-3.2-0.6c-3.4,0-6.3,2.1-7.5,5.1c-3.6,0.8-6.2,3.9-6.2,7.8
		c0,4.4,3.6,8,8,8H67.1z"/>
	<path style="fill:none;stroke:#FFFFFF;stroke-width:0.91;stroke-miterlimit:10;" d="M67.1,53.7c4.4,0,8-3.6,8-8s-3.6-8-8-8
		c-1,0-1.9,0.2-2.8,0.5c0.4-1,0.6-2.1,0.6-3.2c0-5.1-4.1-9.2-9.2-9.2c-4.6,0-8.4,3.3-9.1,7.7c-1-0.4-2-0.6-3.2-0.6
		c-3.4,0-6.3,2.1-7.5,5.1c-3.6,0.8-6.2,3.9-6.2,7.8c0,4.4,3.6,8,8,8H67.1z"/>
	<path style="fill:#110C08;" d="M97.6,46C91.4,68.2,70,74.3,57.7,58.1c2-2.2,3.8-3.8,5.8-6c-4-2.4-9-4.7-13.3-6.8
		c-1.5,6.1-3.5,12.5-2.8,20.5c1.5-1.2,3.2-2.3,4.8-3.3 M52.2,62.7c3.2,4.9,7.2,8.8,11.6,11.5c15.9,9.9,35.5,0.5,44-20.2
		c-1.9-4.8-5.7-7.9-9.8-8"/>
	<path style="fill:none;stroke:#FFFFFF;stroke-width:0.91;stroke-miterlimit:10;" d="M97.6,46C91.4,68.2,70,74.3,57.7,58.1
		c2-2.2,3.8-3.8,5.8-6c-4-2.4-9-4.7-13.3-6.8c-1.5,6.1-3.5,12.5-2.8,20.5c1.5-1.2,3.2-2.3,4.8-3.3 M52.2,62.7
		c3.2,4.9,7.2,8.8,11.6,11.5c15.9,9.9,35.5,0.5,44-20.2c-1.9-4.8-5.7-7.9-9.8-8"/>
</g>
</svg>
