<?xml version="1.0" encoding="utf-8"?>
<!-- Generator: Adobe Illustrator 26.0.1, SVG Export Plug-In . SVG Version: 6.00 Build 0)  -->
<svg version="1.1" id="Layer_1" xmlns="http://www.w3.org/2000/svg" xmlns:xlink="http://www.w3.org/1999/xlink" x="0px" y="0px"
	 viewBox="0 0 55.5 31.1" style="enable-background:new 0 0 55.5 31.1;" xml:space="preserve">
<linearGradient id="SVGID_1_" gradientUnits="userSpaceOnUse" x1="0.5" y1="15.659" x2="54.7664" y2="15.659">
	<stop  offset="0" style="stop-color:#F6B74A"/>
	<stop  offset="0.5" style="stop-color:#DF6369"/>
	<stop  offset="1" style="stop-color:#C93180"/>
</linearGradient>
<linearGradient id="SVGID_00000095339121232879873580000005917629936889303436_" gradientUnits="userSpaceOnUse" x1="0" y1="15.5518" x2="55.4664" y2="15.5518">
	<stop  offset="0" style="stop-color:#F6B74A"/>
	<stop  offset="0.5" style="stop-color:#DF6369"/>
	<stop  offset="1" style="stop-color:#C93180"/>
</linearGradient>
<path style="fill:url(#SVGID_1_);stroke:url(#SVGID_00000095339121232879873580000005917629936889303436_);stroke-miterlimit:10;" d="
	M39.2,30.6H9c-4.7,0-8.5-3.8-8.5-8.4c0-3.9,2.6-7.3,6.5-8.2c1.3-3.1,4.5-5.2,7.8-5.2c1,0,2,0.2,3.1,0.6c0.9-4.6,4.9-7.8,9.6-7.8
	c5.4,0,9.7,4.4,9.7,9.7c0,1.2-0.2,2.3-0.6,3.4l-0.5-0.2c0.4-1,0.6-2.1,0.6-3.2c0-5.1-4.1-9.2-9.2-9.2c-4.5,0-8.4,3.2-9.1,7.7
	L18.2,10L18,9.9c-1.1-0.4-2.1-0.6-3.2-0.6c-3.2,0-6.2,2-7.4,5l0,0.1l-0.1,0c-3.6,0.8-6.2,4-6.2,7.7c0,4.4,3.6,7.9,8,7.9h30.2
	c4.4,0,8-3.6,8-7.9c0-2.5-1.3-5-3.4-6.5l0.3-0.4c2.2,1.6,3.6,4.2,3.6,6.9C47.7,26.8,43.9,30.6,39.2,30.6z M34.3,24.9
	c0.7-0.2,1.1-0.5,1.4-0.9L54.8,5.5l-4.4-4.7L33.6,17l-6.3-7.1l-4.9,4.3l8.7,9.8c0.4,0.5,0.9,0.7,1.4,0.9c0.3,0.1,0.6,0.2,1,0.2
	C33.7,24.9,34,24.9,34.3,24.9z M27.3,10.5l6.3,7.1L50.3,1.4l3.7,4L35.3,23.6c-0.2,0.3-0.6,0.5-1.2,0.7c-0.6,0.1-1.1,0.1-1.5-0.1
	c-0.5-0.2-0.9-0.4-1.2-0.8l-8.4-9.4L27.3,10.5z"/>
</svg>
