<?xml version="1.0" encoding="utf-8"?>
<!-- Generator: Adobe Illustrator 26.0.1, SVG Export Plug-In . SVG Version: 6.00 Build 0)  -->
<svg version="1.1" id="Layer_1" xmlns="http://www.w3.org/2000/svg" xmlns:xlink="http://www.w3.org/1999/xlink" x="0px" y="0px"
	 viewBox="0 0 124.6 83.5" style="enable-background:new 0 0 124.6 83.5;" xml:space="preserve">
<g>
	<path style="fill:#010202;stroke:#FFFFFF;stroke-width:0.91;stroke-miterlimit:10;" d="M25.8,62.3V21.1 M25.8,62.3
		c0,3.1,5.9,5.7,13.3,5.7 M17.2,39.7c2.1,1.5,4.1,2.6,6.2,4.2 M23.4,59.7c-1.8,3.3-4.3,7.1-8.9,7.9c-3.7,0.7-9.3-0.5-12.1-4.4
		 M19.7,56c3-7.3,1.5-14.8-3.3-16.8c-4.9-2-11.3,2.2-14.3,9.5c-3,7.3-1.5,14.8,3.3,16.8S16.6,63.3,19.7,56z M39.1,61.2
		c-4.6,0.1-9.1-1.1-13-3.4 M39.1,53.9c-4.6,0.1-9.1-1.1-13-3.4 M52.2,50.2 M39.1,46.7c-4.6,0.1-9.1-1.1-13-3.4 M52.2,43 M39.1,39.4
		c-4.6,0.1-9.1-1.1-13-3.4 M52.2,35.7 M39.1,32.2c-4.6,0.1-9.1-1.1-13-3.4 M52.2,28.5 M39.1,15.3c-7.3,0-13.3,2.5-13.3,5.7
		c0,3.1,5.9,5.7,13.3,5.7"/>
	<path style="fill:#010202;stroke:#FFFFFF;stroke-width:0.91;stroke-miterlimit:10;" d="M41.4,74.1V9.6 M83.7,74.2V9.6 M83.7,74.2
		c0,4.9-9.5,8.9-21.1,8.9s-21.1-4-21.1-8.9 M97.4,38.7c-3.4,2.4-6.5,4.1-9.9,6.5 M87.5,70.1c2.8,5.1,6.9,11.1,14.3,12.4
		c5.9,1.1,14.9-0.8,19.3-6.9 M93.5,64.4C88.7,53,91.1,41.2,98.8,38c7.8-3.2,18,3.5,22.8,14.8c4.8,11.4,2.4,23.2-5.3,26.4
		C108.5,82.4,98.3,75.8,93.5,64.4z M41.5,66.6c5.9,4.6,15.5,5.7,21,5.8c7.3,0.2,14.5-1.7,20.8-5.3 M41.5,55.3
		c5.9,4.6,15.5,5.7,21,5.8c7.3,0.2,14.5-1.7,20.8-5.4 M41.5,43.9c5.9,4.6,15.5,5.7,21,5.8c7.3,0.2,14.5-1.7,20.8-5.4 M41.5,32.5
		c5.9,4.6,15.5,5.7,21,5.8c7.3,0.2,14.5-1.7,20.8-5.4 M41.5,21.2c5.9,4.6,15.5,5.7,21,5.8c7.3,0.2,14.5-1.7,20.8-5.4 M41.4,9.3
		c0-4.9,9.5-8.9,21.1-8.9s21.1,4,21.1,8.9c0,4.9-9.5,8.9-21.1,8.9S41.4,14.2,41.4,9.3z"/>
</g>
</svg>
