<?xml version="1.0" encoding="utf-8"?>
<!-- Generator: Adobe Illustrator 26.0.1, SVG Export Plug-In . SVG Version: 6.00 Build 0)  -->
<svg version="1.1" id="Layer_1" xmlns="http://www.w3.org/2000/svg" xmlns:xlink="http://www.w3.org/1999/xlink" x="0px" y="0px"
	 viewBox="0 0 123.5 70" style="enable-background:new 0 0 123.5 70;" xml:space="preserve">
<g>
	<path style="fill:none;stroke:#FFFFFF;stroke-width:0.91;stroke-miterlimit:10;" d="M104.5,69.6c10.2,0,18.5-8.4,18.5-18.5
		c0-10.2-8.3-18.5-18.5-18.5c-2.3,0-4.5,0.5-6.5,1.3c0.9-2.4,1.4-4.9,1.4-7.6c0-11.9-9.6-21.5-21.3-21.5c-10.6,0-19.4,7.8-21.1,18
		c-2.3-0.9-4.7-1.5-7.3-1.5c-7.8,0-14.5,4.9-17.2,11.8C24.2,34.8,18,42.1,18,51c0,10.2,8.3,18.5,18.5,18.5H104.5z"/>
	<path style="fill:none;stroke:#FFFFFF;stroke-width:0.91;stroke-linecap:round;stroke-miterlimit:10;" d="M69,2.2
		c-2.6-1.1-5.5-1.8-8.5-1.8c-10.6,0-19.4,7.8-21.1,18c-2.3-0.9-4.7-1.5-7.3-1.5c-7.8,0-14.5,4.9-17.2,11.8
		C6.6,30.6,0.5,37.9,0.5,46.8c0,10.2,8.3,18.5,18.5,18.5"/>
	<path style="fill:none;stroke:#FFFFFF;stroke-width:0.91;stroke-miterlimit:10;" d="M69.3,25.3c-1.4,0-2.6,1.2-2.6,2.6v6.2
		c0,1.4,1.2,2.6,2.6,2.6h6.2c1.4,0,2.6-1.2,2.6-2.6v-6.2c0-1.4-1.2-2.6-2.6-2.6H69.3z"/>
	<path style="fill:none;stroke:#FFFFFF;stroke-width:0.91;stroke-miterlimit:10;" d="M51,34.8c-1.4,0-2.6,1.2-2.6,2.6v6.2
		c0,1.4,1.2,2.6,2.6,2.6h6.2c1.4,0,2.6-1.2,2.6-2.6v-6.2c0-1.4-1.2-2.6-2.6-2.6H51z"/>
	<path style="fill:none;stroke:#FFFFFF;stroke-width:0.91;stroke-miterlimit:10;" d="M73.8,43.5c-1.4,0-2.6,1.2-2.6,2.6v6.2
		c0,1.4,1.2,2.6,2.6,2.6h6.2c1.4,0,2.6-1.2,2.6-2.6v-6.2c0-1.4-1.2-2.6-2.6-2.6H73.8z"/>
	<path style="fill:none;stroke:#FFFFFF;stroke-width:0.91;stroke-miterlimit:10;" d="M96.6,48.8c-1.4,0-2.6,1.2-2.6,2.6v6.2
		c0,1.4,1.2,2.6,2.6,2.6h6.2c1.4,0,2.6-1.2,2.6-2.6v-6.2c0-1.4-1.2-2.6-2.6-2.6H96.6z"/>
	<path style="fill:none;stroke:#FFFFFF;stroke-width:0.91;stroke-miterlimit:10;" d="M33.1,48.8c-1.4,0-2.6,1.2-2.6,2.6v6.2
		c0,1.4,1.2,2.6,2.6,2.6h6.2c1.4,0,2.6-1.2,2.6-2.6v-6.2c0-1.4-1.2-2.6-2.6-2.6H33.1z"/>
</g>
</svg>
