<svg version="1.1" id="Layer_1" xmlns="http://www.w3.org/2000/svg" xmlns:xlink="http://www.w3.org/1999/xlink" x="0px" y="0px"
	 viewBox="0 0 26 21.1" style="enable-background:new 0 0 26 21.1;" xml:space="preserve">
<path fill="#ffffff" d="M26,2.5c-1,0.4-2,0.7-3.1,0.8c1.1-0.7,1.9-1.7,2.3-3c-1,0.6-2.2,1.1-3.4,1.3c-1-1-2.4-1.7-3.9-1.7c-2.9,0-5.3,2.4-5.3,5.3
	c0,0.4,0,0.8,0.1,1.2C8.4,6.3,4.4,4.2,1.8,1C1.4,1.8,1.1,2.7,1.1,3.7c0,1.9,0.9,3.5,2.4,4.4C2.6,8.1,1.8,7.8,1,7.4c0,0,0,0,0,0.1
	c0,2.6,1.8,4.7,4.3,5.2c-0.4,0.1-0.9,0.2-1.4,0.2c-0.3,0-0.7,0-1-0.1c0.7,2.1,2.6,3.7,5,3.7c-1.8,1.4-4.1,2.3-6.6,2.3
	c-0.4,0-0.9,0-1.3-0.1c2.4,1.5,5.2,2.4,8.2,2.4C18,21.1,23.4,13,23.4,6c0-0.2,0-0.5,0-0.7C24.4,4.5,25.3,3.6,26,2.5z"/>
</svg>
