<svg xmlns="http://www.w3.org/2000/svg" xmlns:xlink="http://www.w3.org/1999/xlink" viewBox="0 0 378.86 59.99"><defs><style>.cls-1{fill:url(#linear-gradient);}.cls-2{fill:#da006e;}.cls-3{fill:#fff;}</style><linearGradient id="linear-gradient" x1="-0.69" y1="29.55" x2="57.64" y2="29.55" gradientUnits="userSpaceOnUse"><stop offset="0.02" stop-color="#efb627"/><stop offset="0.1" stop-color="#eeaa2c"/><stop offset="0.26" stop-color="#ea8a38"/><stop offset="0.47" stop-color="#e4554d"/><stop offset="0.72" stop-color="#dc0e69"/><stop offset="0.77" stop-color="#da006e"/></linearGradient></defs><g id="Layer_2" data-name="Layer 2"><g id="Layer_1-2" data-name="Layer 1"><path class="cls-1" d="M30.79,7.56H5l2.55,8.79H30.79a4.41,4.41,0,0,1,4.4,4.4v4.4h-22a13.2,13.2,0,0,0,0,26.4H30.79A13.21,13.21,0,0,0,44,38.35V20.75A13.21,13.21,0,0,0,30.79,7.56Zm4.4,30.79a4.41,4.41,0,0,1-4.4,4.4H13.2a4.4,4.4,0,1,1,0-8.8h22Z"/><polygon class="cls-2" points="56.57 25.15 48.55 25.15 48.55 33.95 59.12 33.95 56.57 25.15"/><rect class="cls-3" x="221.63" y="7.57" width="2.27" height="44.86"/><path class="cls-3" d="M88,38.88H84.18V36.74a6.56,6.56,0,0,1-5.43,2.47,8.75,8.75,0,0,1-8.72-9c0-5.27,3.78-9,8.72-9a6.59,6.59,0,0,1,5.43,2.47V21.44H88ZM74,30.16c0,3,2,5.6,5.26,5.6,3.13,0,5.27-2.31,5.27-5.6a5.28,5.28,0,0,0-5.27-5.6C76,24.56,74,27.2,74,30.16Z"/><path class="cls-3" d="M120.56,28V38.88h-3.79V29.17c0-3-1.48-4.61-4-4.61a4.28,4.28,0,0,0-4.44,4.61v9.55h-3.79V29c0-3-1.48-4.61-4-4.61A4.28,4.28,0,0,0,96.2,29v9.55H92.41V21.44h3.46v2.14a6.35,6.35,0,0,1,5.26-2.64,6.59,6.59,0,0,1,5.93,3.13,7,7,0,0,1,6.25-3.13C117.59,21.11,120.56,23.91,120.56,28Z"/><path class="cls-3" d="M163.68,30.16c0,5.27-4,9.05-9.38,9.05a9.1,9.1,0,0,1-9.38-9,9.39,9.39,0,0,1,18.76,0Zm-14.65,0a5.44,5.44,0,1,0,10.87,0,5.44,5.44,0,1,0-10.87,0Z"/><path class="cls-3" d="M182,23.74l-2.47,2.63a5.61,5.61,0,0,0-4.11-1.81c-3,0-5.1,2.31-5.1,5.6s2.14,5.6,5.1,5.6A6.79,6.79,0,0,0,179.65,34l2.3,2.63a8.59,8.59,0,0,1-6.42,2.8,8.73,8.73,0,0,1-9.05-9.05,8.73,8.73,0,0,1,9.05-9.06A7.6,7.6,0,0,1,182,23.74Z"/><path class="cls-3" d="M197.59,25.88a10.57,10.57,0,0,0-5.27-1.48c-2.14,0-3.29.82-3.29,2.14,0,1.15,1.32,1.48,2.8,1.81l1.81.33c3.78.49,6.09,2.14,6.09,5.1,0,3.29-3,5.6-7.9,5.6a12.89,12.89,0,0,1-7.41-2.14l1.81-2.8A8.86,8.86,0,0,0,192,36.25c2.64,0,3.95-.82,3.95-2.14,0-1-1-1.64-3-2L191.17,32c-3.79-.49-5.93-2.3-5.93-5.1,0-3.46,2.8-5.6,7.08-5.6a13.7,13.7,0,0,1,7.08,1.81Z"/><path class="cls-3" d="M137.84,23.58V17.16l3.79-1.32V38.72h-3.79v-2a6.56,6.56,0,0,1-5.43,2.47,8.75,8.75,0,0,1-8.73-9,8.66,8.66,0,0,1,8.73-9A6.59,6.59,0,0,1,137.84,23.58Zm-10.21,6.58c0,3,2,5.6,5.27,5.6,3.13,0,5.27-2.31,5.27-5.6a5.28,5.28,0,0,0-5.27-5.6C129.61,24.56,127.63,27.2,127.63,30.16Z"/><path class="cls-3" d="M273.48,15.07V26.36h-4.76V16.61c0-2.57-1.3-4-3.46-4a3.64,3.64,0,0,0-3.76,4v9.72h-4.78V16.61c0-2.57-1.28-4-3.46-4s-3.75,1.34-3.75,4v9.72h-4.78V8.62h4.65v2.09a6,6,0,0,1,5.22-2.56,6.72,6.72,0,0,1,5.86,3,7.16,7.16,0,0,1,13,3.88ZM294,26.36h-4.67V24.41A6.52,6.52,0,0,1,284,26.82c-4.88,0-8.58-4-8.58-9.34s3.7-9.33,8.58-9.33a6.5,6.5,0,0,1,5.31,2.43v-2H294ZM280.3,17.48a4.59,4.59,0,1,0,9.16,0,4.59,4.59,0,1,0-9.16,0Zm20.95-2.54h1.68l5-6.32h5.86l-7,8.35,7,9.39H308l-5.11-7.17h-1.61v7.17h-4.78V0h4.78Zm29.4,2.53a15,15,0,0,1-.09,1.61H318a4.29,4.29,0,0,0,4.56,3.68A7.15,7.15,0,0,0,327,21.05l2.8,3.08a10.78,10.78,0,0,1-7.56,2.69c-5.44,0-9.21-3.7-9.21-9.28s3.66-9.39,9-9.39C327.14,8.15,330.63,11.94,330.65,17.47ZM318,15.82h7.85c-.44-2.27-1.81-3.55-3.86-3.55C319.74,12.27,318.42,13.62,318,15.82ZM347.55,3.17a3.05,3.05,0,0,1-6.1,0,3.05,3.05,0,1,1,6.1,0Zm-.64,23.19h-4.78V8.62h4.78Zm16.75-13.49h-6.42v6.48c0,2.22,1.17,3,2.65,3a6.93,6.93,0,0,0,3.34-1.15L365,25a9.83,9.83,0,0,1-5.87,1.87c-4.4,0-6.65-2.49-6.65-7.08V12.87H349V8.62h3.42V3.35h4.78V8.62h6.42Z"/><path class="cls-3" d="M262.51,52.32h-4.67v-2a6.5,6.5,0,0,1-5.31,2.42c-4.88,0-8.58-4-8.58-9.34s3.7-9.34,8.58-9.34a6.48,6.48,0,0,1,5.31,2.44v-2h4.67Zm-13.67-8.88a4.59,4.59,0,1,0,9.15,0,4.59,4.59,0,1,0-9.15,0ZM293.73,41v11.3H289V42.56c0-2.56-1.3-4-3.46-4a3.64,3.64,0,0,0-3.76,4v9.72H277V42.56c0-2.56-1.28-4-3.46-4s-3.75,1.34-3.75,4v9.72H265V34.58h4.65v2.09a6,6,0,0,1,5.22-2.57,6.74,6.74,0,0,1,5.86,3,6.68,6.68,0,0,1,6-3A6.61,6.61,0,0,1,293.73,41Zm20.48,11.3h-4.66v-2a6.52,6.52,0,0,1-5.31,2.42c-4.89,0-8.59-4-8.59-9.34s3.7-9.34,8.59-9.34a6.51,6.51,0,0,1,5.31,2.44v-2h4.66Zm-13.67-8.88a4.59,4.59,0,1,0,9.15,0,4.59,4.59,0,1,0-9.15,0ZM332,38.08l-8.75,10h9v4.26H316.63V48.88l9-10.05h-8.65V34.58h15Zm8-8.95a3.05,3.05,0,1,1-3.06-3.08A3,3,0,0,1,340,29.13Zm-.65,23.19h-4.77V34.58h4.77ZM358.59,41v11.3h-4.77V42.56c0-2.56-1.29-4-3.46-4a3.64,3.64,0,0,0-3.76,4v9.72h-4.78V34.58h4.65v2.09a6,6,0,0,1,5.22-2.57A6.61,6.61,0,0,1,358.59,41Zm15.59-4.46v-2h4.68V50.86c0,5.69-3.71,9.13-9.57,9.13a14.05,14.05,0,0,1-7.77-2.14l1.71-3.9a10.47,10.47,0,0,0,5.86,1.81c3,0,5.05-1.64,5.05-4.7V49.81a6.67,6.67,0,0,1-5.46,2.4c-4.32,0-8.16-3.61-8.16-9s3.84-9.07,8.16-9.07A6.75,6.75,0,0,1,374.18,36.56Zm-8.76,6.61a4.46,4.46,0,1,0,8.92,0,4.46,4.46,0,1,0-8.92,0Z"/></g></g></svg>