<?xml version="1.0" encoding="utf-8"?>
<!-- Generator: Adobe Illustrator 26.0.1, SVG Export Plug-In . SVG Version: 6.00 Build 0)  -->
<svg version="1.1" id="Layer_1" xmlns="http://www.w3.org/2000/svg" xmlns:xlink="http://www.w3.org/1999/xlink" x="0px" y="0px"
	 viewBox="0 0 69.6 96.4" style="enable-background:new 0 0 69.6 96.4;" xml:space="preserve">
<g>
	<path style="fill:none;stroke:#FFFFFF;stroke-width:0.91;stroke-miterlimit:10;" d="M23.1,78.2v9.5 M17.2,85.1v-4.4
		c0-0.8-0.6-1.4-1.4-1.4h-2.1c-0.8,0-1.4,0.6-1.4,1.4v4.4c0,0.8,0.6,1.4,1.4,1.4h2.1C16.5,86.5,17.2,85.9,17.2,85.1z M12.3,64.9v9.5
		 M19.7,73.4h2.1c0.8,0,1.4-0.6,1.4-1.4v-4.4c0-0.8-0.6-1.4-1.4-1.4h-2.1c-0.8,0-1.4,0.6-1.4,1.4V72C18.3,72.8,19,73.4,19.7,73.4z
		 M40,51.8v9.5 M34,58.9v-4.4c0-0.8-0.6-1.4-1.4-1.4h-2.1c-0.8,0-1.4,0.6-1.4,1.4v4.4c0,0.8,0.6,1.4,1.4,1.4h2.1
		C33.5,60.2,34,59.5,34,58.9z M40,78.2v9.5 M29.1,64.9v9.5 M23.1,51.8v9.5 M34,85.1v-4.4c0-0.8-0.6-1.4-1.4-1.4h-2.1
		c-0.8,0-1.4,0.6-1.4,1.4v4.4c0,0.8,0.6,1.4,1.4,1.4h2.1C33.5,86.5,34,85.9,34,85.1z M36.7,73.4h2.1c0.8,0,1.4-0.6,1.4-1.4v-4.4
		c0-0.8-0.6-1.4-1.4-1.4h-2.1c-0.8,0-1.4,0.6-1.4,1.4V72C35.3,72.8,35.8,73.4,36.7,73.4z M12.3,58.9v-4.4c0-0.8,0.6-1.4,1.4-1.4h2.1
		c0.8,0,1.4,0.6,1.4,1.4v4.4c0,0.8-0.6,1.4-1.4,1.4h-2.1C12.8,60.2,12.3,59.5,12.3,58.9z"/>
	<path style="fill:none;stroke:#FFFFFF;stroke-width:0.91;stroke-miterlimit:10;" d="M57.4,78.2v9.5 M51.3,85.1v-4.4
		c0-0.8-0.6-1.4-1.4-1.4h-2.1c-0.8,0-1.4,0.6-1.4,1.4v4.4c0,0.8,0.6,1.4,1.4,1.4h2.1C50.6,86.5,51.3,85.9,51.3,85.1z M46.4,64.9v9.5
		 M53.8,73.4h2.1c0.8,0,1.4-0.6,1.4-1.4v-4.4c0-0.8-0.6-1.4-1.4-1.4h-2.1c-0.8,0-1.4,0.6-1.4,1.4V72C52.4,72.8,53.1,73.4,53.8,73.4z
		 M57.4,51.8v9.5 M46.4,58.9v-4.4c0-0.8,0.6-1.4,1.4-1.4h2.1c0.8,0,1.4,0.6,1.4,1.4v4.4c0,0.8-0.6,1.4-1.4,1.4h-2.1
		C46.9,60.2,46.4,59.5,46.4,58.9z"/>
	<path style="fill:none;stroke:#FFFFFF;stroke-width:0.91;stroke-miterlimit:10;" d="M11.9,43.6V23.2c0-12.5,10.3-22.7,22.9-22.7
		s22.9,10.2,22.9,22.7v5.3 M69.2,91.4c0,2.5-2.1,4.5-4.6,4.5H5c-2.5,0-4.6-2-4.6-4.5V48.2c0-2.5,2.1-4.5,4.6-4.5h59.6
		c2.5,0,4.6,2,4.6,4.5V91.4z"/>
</g>
</svg>
