<?xml version="1.0" encoding="utf-8"?>
<svg version="1.1" id="Layer_1" xmlns="http://www.w3.org/2000/svg" xmlns:xlink="http://www.w3.org/1999/xlink" x="0px" y="0px"
	 viewBox="0 0 20 20" style="enable-background:new 0 0 20 20;" xml:space="preserve">
<style type="text/css">
	.st0{fill:#ffffff;}
</style>
<path class="st0" d="M8,2C4.7,2,2,4.7,2,8c0,3.3,2.7,6,6,6c3.3,0,6-2.7,6-6C14,4.7,11.3,2,8,2z M0,8c0-4.4,3.6-8,8-8
	c4.4,0,8,3.6,8,8c0,1.8-0.6,3.6-1.7,4.9l5.4,5.4c0.4,0.4,0.4,1,0,1.4c-0.4,0.4-1,0.4-1.4,0l-5.4-5.4C11.6,15.4,9.8,16,8,16
	C3.6,16,0,12.4,0,8z"/>
</svg>
